<svg
      width="512"
      height="512"
      viewBox="0 0 512 512"
      fill="none"
      xmlns="http://www.w3.org/2000/svg"
    >
      <path
        d="M332.046 255.989C332.046 297.682 297.999 331.482 255.999 331.482C213.999 331.482 179.952 297.682 179.952 255.989C179.952 214.295 213.999 180.496 255.999 180.496C297.999 180.496 332.046 214.295 332.046 255.989ZM255.967 0C124.252 0 15.6049 98.0068 0 224.573H138.569C152.492 173.158 199.774 135.333 255.967 135.333C312.16 135.333 359.493 173.158 373.431 224.573H512C496.387 98.0068 387.682 0 255.967 0ZM0 287.427C15.6049 413.993 124.252 512 255.967 512C387.682 512 496.387 413.993 512 287.427H373.431C359.493 338.842 312.16 376.667 255.967 376.667C199.774 376.667 152.492 338.842 138.569 287.427H0Z"
        fill="#F5F5F6"
      />
</svg>
